<svg xmlns="http://www.w3.org/2000/svg" width="210mm" height="297mm" version="1.0" viewBox="0 0 21000 29700" aria-hidden="true" data-prefix="fab" data-icon="instagram" shape-rendering="geometricPrecision" text-rendering="geometricPrecision" image-rendering="optimizeQuality" fill-rule="evenodd" clip-rule="evenodd"><path d="M10504.69 9459.37c-2981.25 0-5385.94 2404.69-5385.94 5385.94 0 2981.25 2404.69 5385.94 5385.94 5385.94 2981.25 0 5385.94-2404.69 5385.94-5385.94 0-2981.25-2404.69-5385.94-5385.94-5385.94zm0 8887.51c-1926.56 0-3501.56-1570.31-3501.56-3501.56s1570.31-3501.56 3501.56-3501.56 3501.56 1570.31 3501.56 3501.56-1575 3501.56-3501.56 3501.56zm6862.5-9107.82c0 698.44-562.5 1256.25-1256.25 1256.25-698.44 0-1256.25-562.5-1256.25-1256.25s562.5-1256.25 1256.25-1256.25 1256.25 562.5 1256.25 1256.25zm3567.19 1275c-79.69-1682.81-464.06-3173.44-1696.88-4401.56-1228.13-1228.13-2718.75-1612.5-4401.56-1696.88-1734.38-98.44-6932.81-98.44-8667.19 0-1678.13 79.69-3168.75 464.06-4401.56 1692.19C534.38 7335.94 154.69 8826.56 70.31 10509.37c-98.44 1734.38-98.44 6932.81 0 8667.19C150 20859.37 534.37 22350 1767.19 23578.12c1232.82 1228.12 2718.75 1612.5 4401.56 1696.88 1734.38 98.44 6932.81 98.44 8667.19 0 1682.81-79.69 3173.44-464.06 4401.56-1696.88 1228.13-1228.13 1612.5-2718.75 1696.88-4401.56 98.44-1734.38 98.44-6928.13 0-8662.5zM18693.75 21037.5c-365.63 918.75-1073.44 1626.56-1996.88 1996.88-1382.81 548.44-4664.06 421.88-6192.19 421.88-1528.13 0-4814.06 121.88-6192.19-421.88-918.75-365.63-1626.56-1073.44-1996.88-1996.88-548.44-1382.81-421.88-4664.06-421.88-6192.19 0-1528.13-121.88-4814.06 421.88-6192.19 365.63-918.75 1073.44-1626.56 1996.88-1996.88 1382.81-548.44 4664.06-421.88 6192.19-421.88 1528.13 0 4814.06-121.88 6192.19 421.88 918.75 365.63 1626.56 1073.44 1996.88 1996.88 548.44 1382.81 421.88 4664.06 421.88 6192.19 0 1528.13 126.56 4814.06-421.88 6192.19z" fill="#fefefe"/></svg>