<svg xmlns="http://www.w3.org/2000/svg" width="210mm" height="297mm" version="1.0" viewBox="0 0 21000 29700" aria-hidden="true" data-prefix="fab" data-icon="linkedin-in" shape-rendering="geometricPrecision" text-rendering="geometricPrecision" image-rendering="optimizeQuality" fill-rule="evenodd" clip-rule="evenodd"><path d="M4826.36 20476.27H471.67V6455.97h4354.69v14020.3zM2646.67 4543.47c-1392.18 0-2521.87-1153.13-2521.87-2545.32S1254.49-523.72 2646.67-523.72c1392.18 0 2521.88 1129.69 2521.88 2521.88S4038.86 4543.47 2646.67 4543.47zm18478.12 15932.8h-4345.31v-6825c0-1626.56-32.81-3712.49-2264.06-3712.49-2264.06 0-2610.94 1767.18-2610.94 3595.3v6942.19H7554.49V6455.97h4176.55v1912.5h60.94c581.25-1101.56 2001.56-2264.06 4120.31-2264.06 4406.25 0 5217.19 2901.56 5217.19 6670.3v7701.56h-4.69z" fill="#fefefe"/></svg>