<svg xmlns="http://www.w3.org/2000/svg" width="752.546" height="140mm" version="1.0" viewBox="0 0 4983.03 3503.69" data-prefix="fab" data-icon="youtube" shape-rendering="geometricPrecision" text-rendering="geometricPrecision" image-rendering="optimizeQuality" fill-rule="evenodd" clip-rule="evenodd"><path d="M4878.91 548.21c-57.31-215.79-226.16-385.73-440.55-443.41C4049.76 0 2491.52 0 2491.52 0S933.29 0 544.68 104.8c-214.39 57.68-383.24 227.62-440.55 443.41C.01 939.34.01 1755.39.01 1755.39s0 816.05 104.12 1207.18c57.31 215.79 226.16 378.65 440.55 436.33 388.61 104.8 1946.84 104.8 1946.84 104.8s1558.23 0 1946.84-104.8c214.39-57.67 383.24-220.54 440.55-436.33 104.12-391.13 104.12-1207.18 104.12-1207.18s0-816.05-104.12-1207.18zM1981.89 2496.3V1014.48l1302.38 740.93-1302.38 740.89z" fill="#fefefe"/></svg>